<svg version="1.1" xmlns="http://www.w3.org/2000/svg" xmlns:xlink="http://www.w3.org/1999/xlink" width="39.23922" height="127.15329" viewBox="0,0,39.23922,127.15329"><g transform="translate(-221.12529,-116.63808)"><g stroke="#000000" stroke-miterlimit="10"><path d="M236.90084,116.65113c4.58741,-0.26152 3.24526,2.89971 5.86682,56.80553c1.22722,31.44345 1.94214,57.11105 -1.42266,57.06127c-5.01596,0.24745 -4.63959,-25.36207 -5.86681,-56.80553c-0.92931,-51.03148 -3.99099,-56.90723 1.42265,-57.06127z" fill="#d99e82" stroke-width="0"/><path d="M234.07455,186.44161c-8.68122,-2.86822 -13.44505,-12.07505 -10.64033,-20.56408c0.24654,-0.7462 -3.08891,-10.77588 -1.48863,-14.08596c1.25087,-2.49655 9.16621,2.71219 11.12097,3.09635c4.92992,0.57368 6.0357,-0.88234 11.16477,0.81227c1.49906,0.49528 5.56502,-5.56921 7.48887,-3.30639c3.55826,4.1852 4.97193,18.36049 3.15148,23.87045c-2.80472,8.48903 -12.11591,13.04556 -20.79711,10.17734z" fill="#fcb1e3" stroke-width="0"/><path d="M249.81466,211.58728c-4.61228,1.36828 -9.09108,1.5664 -13.41585,0.58227c-4.45765,-1.01439 -8.27221,-1.93146 -10.87658,-6.10788c-5.13111,-8.22837 -1.89532,-20.85792 5.62067,-23.99835c1.7668,-0.73848 3.87293,-1.3046 5.26706,-1.4995c1.95104,-0.27275 2.13683,-0.34775 6.03923,-0.05831c6.03314,1.00512 9.71279,2.25271 12.89576,7.35699c5.13111,8.22837 2.70503,18.69921 -5.53029,23.72479z" fill="#ffd983" stroke-width="0"/><path d="M223.95922,216.41845c3.24571,-5.53055 6.44766,-7.04327 12.75788,-7.22822c2.36665,-0.06936 8.09911,0.16674 11.16064,0.80926c3.55183,0.80173 6.25839,2.67966 8.15556,5.27936c1.70303,2.33364 2.20035,3.02504 3.84515,8.54586c1.08484,5.07544 0.67554,12.26707 -4.59214,16.28714c-4.5513,3.47334 -29.38932,9.87411 -34.14615,-11.39785c-0.13355,-0.59722 0.61899,-8.26595 2.81906,-12.29555z" fill="#a6d388" stroke-width="0"/><path d="M239.86501,169.57362c-1.34022,-0.4428 -2.06774,-1.88823 -1.62493,-3.22848c0.44281,-1.34023 1.88823,-2.06774 3.22847,-1.62493c1.34024,0.44281 2.06774,1.88822 1.62493,3.22847c-0.44281,1.34024 -1.88823,2.06775 -3.22847,1.62494z" fill="#000000" stroke-width="1.5"/><path d="M253.3396,166.92593z" fill="#000000" stroke-width="0"/><path d="M254.73723,168.36295c-0.42997,1.30139 -0.75702,1.58328 -2.05841,1.15331c-0.65069,-0.21498 -0.77771,-0.62752 -1.06325,-1.19481c-0.28553,-0.56729 -0.44822,-1.19643 -0.23323,-1.84713c0.42997,-1.30139 0.47567,-1.67625 1.77707,-1.24627c1.30139,0.42997 2.00779,1.8335 1.57782,3.13489z" fill="#000000" stroke-width="1.5"/></g></g></svg>