<svg version="1.1" xmlns="http://www.w3.org/2000/svg" xmlns:xlink="http://www.w3.org/1999/xlink" width="157.32532" height="186.14793" viewBox="0,0,157.32532,186.14793"><g transform="translate(-161.33734,-106.72305)"><g stroke-miterlimit="10"><path d="M163.33734,185.38572c0,-42.33962 34.32304,-76.66266 76.66266,-76.66266c42.33962,0 76.66266,34.32304 76.66266,76.66266c0,42.33962 -34.32304,76.66266 -76.66266,76.66266c-42.33962,0 -76.66266,-34.32304 -76.66266,-76.66266z" fill="#ebfcff" stroke="#90efff" stroke-width="4"/><text transform="translate(204.15837,277.42823) scale(1.23542,1.23542)" font-size="40" xml:space="preserve" fill="#90efff" stroke="#0400ff" stroke-width="1" font-family="&quot;Bangers-Regular&quot;, Scratch" font-weight="normal" text-anchor="start"><tspan x="0" dy="0">go!</tspan></text><path d="M212.45298,121.45117c4.27378,-1.68745 3.99111,1.73524 23.39137,52.09733c11.02954,29.4711 19.76067,53.61865 16.55011,54.62697c-4.68511,1.80854 -12.36182,-22.62622 -23.39136,-52.09733c-16.89172,-48.16374 -21.64214,-52.78237 -16.55012,-54.62697z" fill-opacity="0.25098" fill="#d99e82" stroke="#000000" stroke-width="0"/><path d="M231.66366,188.60508c-9.14277,0 -16.55443,-7.24756 -16.55443,-16.18792c0,-0.78587 -6.31352,-9.26285 -5.83245,-12.90786c0.40452,-2.76293 9.55433,-0.3003 11.53093,-0.54877c4.86102,-1.00187 5.4542,-2.73129 10.85596,-2.73129c1.57876,0 3.53694,-7.03389 6.07355,-5.48884c4.69159,2.85764 10.48089,15.87384 10.48089,21.67674c0,8.94036 -7.41168,16.18792 -16.55443,16.18792z" fill-opacity="0.25098" fill="#fcb1e3" stroke="#000000" stroke-width="0"/><path d="M254.49773,207.54343c-3.95019,2.74614 -8.14073,4.33933 -12.55592,4.76162c-4.55084,0.43525 -8.46053,0.76116 -12.24363,-2.3874c-7.45344,-6.20327 -8.34307,-19.21037 -2.19171,-24.55014c1.44594,-1.25547 3.26814,-2.45373 4.53075,-3.07615c1.76698,-0.87105 1.91986,-1.00055 5.71606,-1.94996c6.04389,-0.9383 9.92917,-0.90806 14.55274,2.94c7.45344,6.20327 8.43469,16.90662 2.19171,24.26203z" fill-opacity="0.25098" fill="#ffda82" stroke="#000000" stroke-width="0"/><path d="M232.32721,232.90573c-2.56114,-5.68425 -1.68892,-8.14742 -0.86406,-12.66379c1.34684,-6.26958 3.91259,-8.71043 9.84623,-10.86565c2.22542,-0.80831 7.74255,-2.38249 10.8511,-2.73285c3.62404,-0.35301 6.7831,0.58103 9.40006,2.45432c2.34915,1.68157 3.03827,2.18205 6.332,6.90816c2.62231,4.47889 4.4898,11.43587 0.7492,16.90554c-3.6011,5.26566 -11.02377,5.95331 -18.58348,5.95331c-8.33056,0 -15.04386,-0.62903 -17.73105,-5.95905z" fill-opacity="0.25098" fill="#a6d487" stroke="#000000" stroke-width="0"/><path d="M231.87007,170.77208c-1.41148,0 -2.55572,-1.14423 -2.55572,-2.55573c0,-1.41149 1.14423,-2.55572 2.55572,-2.55572c1.4115,0 2.55572,1.14422 2.55572,2.55572c0,1.4115 -1.14422,2.55573 -2.55572,2.55573z" fill="#000000" stroke="#000000" stroke-width="1.5"/><path d="M243.83381,164.03088z" fill="#000000" stroke="#000000" stroke-width="0"/><path d="M245.61169,164.9569c0,1.37058 -0.22211,1.74084 -1.59269,1.74084c-0.68528,0 -0.93531,-0.35186 -1.3844,-0.80094c-0.44908,-0.44908 -0.80093,-0.99542 -0.80093,-1.68071c0,-1.37058 -0.07421,-1.74085 1.29638,-1.74085c1.37058,0 2.48163,1.11107 2.48163,2.48165z" fill="#000000" stroke="#000000" stroke-width="1.5"/><path d="M239.84514,115.29466c4.58622,0.28161 2.88043,3.26238 -0.877,57.10095c-2.49155,31.36859 -4.8103,56.94124 -8.14573,56.49477c-5.01012,-0.34614 -1.61455,-25.73235 0.87701,-57.10095c5.0987,-50.78464 2.75172,-56.9806 8.14572,-56.49477z" fill-opacity="0.50196" fill="#d99e82" stroke="#000000" stroke-width="0"/><path d="M228.8036,184.26409c-8.28213,-3.87253 -11.92632,-13.57716 -8.13952,-21.67593c0.33286,-0.71189 -1.79581,-11.06508 0.18386,-14.16321c1.53671,-2.33151 8.78215,3.77482 10.67793,4.38696c4.82779,1.15138 6.09765,-0.16399 10.99093,2.12399c1.43015,0.6687 6.18329,-4.87365 7.82669,-2.39963c3.03957,4.57582 2.77073,18.8189 0.31284,24.07555c-3.7868,8.09878 -13.57059,11.52479 -21.8527,7.65227z" fill-opacity="0.50196" fill="#fcb1e3" stroke="#000000" stroke-width="0"/><path d="M241.46666,211.09137c-4.74151,0.81449 -9.2124,0.48275 -13.39084,-1.00482c-4.30681,-1.53329 -7.98651,-2.89405 -10.07989,-7.34861c-4.12435,-8.77633 0.57908,-20.93585 8.41312,-23.16749c1.8416,-0.52484 3.99981,-0.83849 5.4072,-0.86753c1.96959,-0.04063 2.16293,-0.09318 6.00392,0.6547c5.87239,1.70999 9.37913,3.38304 11.93757,8.82724c4.12435,8.77633 0.4797,18.88777 -8.29108,22.9065z" fill-opacity="0.50196" fill="#ffda82" stroke="#000000" stroke-width="0"/><path d="M210.6406,224.67564c0.08758,-6.23398 1.921,-8.09584 4.58118,-11.83769c3.87562,-5.10893 7.2337,-6.23326 13.52165,-5.67234c2.3583,0.21038 8.02285,1.12123 10.98719,2.12052c3.43242,1.21523 5.89848,3.3994 7.47565,6.2048c1.41577,2.51829 1.82803,3.26354 2.80991,8.93987c0.47837,5.16799 -0.77664,12.26109 -6.48187,15.6315c-5.49245,3.2447 -12.50767,0.72365 -19.35576,-2.47836c-7.54638,-3.52851 -13.3613,-6.94183 -13.53794,-12.90831z" fill-opacity="0.50196" fill="#a6d487" stroke="#000000" stroke-width="0"/><path d="M236.54397,168.1972c-1.27861,-0.59785 -1.83049,-2.11903 -1.23263,-3.39766c0.59785,-1.27862 2.11903,-1.83049 3.39765,-1.23264c1.27863,0.59786 1.83049,2.11902 1.23264,3.39765c-0.59786,1.27863 -2.11902,1.8305 -3.39765,1.23264z" fill="#000000" stroke="#000000" stroke-width="1.5"/><path d="M251.45514,168.74985c-0.58053,1.24156 -0.93856,1.48289 -2.18012,0.90237c-0.62077,-0.29026 -0.69823,-0.7149 -0.91483,-1.31192c-0.21659,-0.59702 -0.30391,-1.24096 -0.01365,-1.86174c0.58053,-1.24156 0.67013,-1.60841 1.91171,-1.02788c1.24156,0.58053 1.77742,2.05761 1.19689,3.29917z" fill="#000000" stroke="#000000" stroke-width="1.5"/><path d="M271.19439,123.31037c3.87641,2.46701 0.94064,4.24914 -28.41523,49.53648c-17.36847,26.23991 -31.77939,47.49226 -34.48158,45.48662c-4.21606,-2.72872 11.04676,-23.29656 28.41523,-49.53647c29.05073,-41.96583 29.99727,-48.52345 34.48157,-45.48663z" fill="#d99e82" stroke="#000000" stroke-width="0"/><path d="M228.13894,178.30969c-5.37149,-7.39847 -3.8611,-17.65413 3.37358,-22.9067c0.63594,-0.46171 3.78637,-10.55104 7.0186,-12.30323c2.47347,-1.29591 5.85629,7.55508 7.21864,9.00859c3.66664,3.345 5.41461,2.80895 8.58821,7.18014c0.92754,1.27756 7.76993,-1.27035 8.00994,1.69005c0.44392,5.4754 -6.6877,17.80737 -11.38349,21.21665c-7.23467,5.25257 -17.45396,3.51296 -22.82544,-3.88549z" fill="#fcb1e3" stroke="#000000" stroke-width="0"/><path d="M226.22904,207.91389c-4.543,-1.58316 -8.29423,-4.03819 -11.22993,-7.36293c-3.02589,-3.42689 -5.58661,-6.3992 -5.26136,-11.31036c0.64079,-9.67593 10.64367,-18.03767 18.57869,-16.19708c1.86545,0.43247 3.90567,1.20303 5.15114,1.85908c1.74299,0.91811 1.9376,0.96574 4.93619,3.4799c4.31015,4.33954 6.56833,7.50134 6.17082,13.50358c-0.64079,9.67593 -8.72561,16.75833 -18.34555,16.02781z" fill="#ffd983" stroke="#000000" stroke-width="0"/><path d="M192.68002,204.87383c3.09508,-5.41208 5.60075,-6.15341 9.74008,-8.13934c5.86472,-2.59357 9.34731,-1.95136 14.57743,1.58401c1.96156,1.32595 6.47679,4.86565 8.58662,7.17529c2.41483,2.72523 3.51498,5.83035 3.53658,9.04861c0.0194,2.88891 0.01927,3.7406 -1.87006,9.18258c-2.08375,4.75342 -6.61627,10.35193 -13.24005,10.53848c-6.37674,0.17958 -11.29411,-5.42296 -15.73553,-11.54039c-4.89431,-6.74122 -8.32943,-12.54328 -5.59506,-17.84925z" fill="#a6d388" stroke="#000000" stroke-width="0"/><path d="M242.69094,167.99962c-0.82926,-1.14219 -0.57559,-2.74038 0.56662,-3.56965c1.1422,-0.82927 2.74038,-0.57559 3.56964,0.56661c0.82927,1.14221 0.5756,2.74037 -0.56661,3.56964c-1.14221,0.82927 -2.74038,0.5756 -3.56965,-0.5666z" fill="#000000" stroke="#000000" stroke-width="1.5"/><path d="M255.47004,175.70305c-1.10909,0.80523 -1.53921,0.84303 -2.34444,-0.26606c-0.40261,-0.55454 -0.26478,-0.96359 -0.16522,-1.59084c0.09956,-0.62724 0.33495,-1.23295 0.8895,-1.63556c1.10909,-0.80523 1.36512,-1.08282 2.17036,0.02628c0.80523,1.10909 0.55889,2.66094 -0.5502,3.46617z" fill="#000000" stroke="#000000" stroke-width="1.5"/></g></g></svg>