<svg version="1.1" xmlns="http://www.w3.org/2000/svg" xmlns:xlink="http://www.w3.org/1999/xlink" width="27.0008" height="27.00141" viewBox="0,0,27.0008,27.00141"><g transform="translate(-102.8947,-231.04313)"><g stroke="none" stroke-miterlimit="10"><path d="M128.90197,258.04454c-0.25421,0 -0.50842,-0.09714 -0.7027,-0.29063l-24.80588,-24.80668c-0.38777,-0.38777 -0.38777,-1.0176 0,-1.4054c0.38777,-0.38777 1.01763,-0.38777 1.4054,0l24.80588,24.80588c0.38777,0.38777 0.38777,1.0176 0,1.4054c-0.19432,0.19348 -0.44852,0.29143 -0.70273,0.29143z" fill="#d99e82"/><path d="M113.82705,236.50934c0,3.01886 -2.44731,5.46616 -5.46616,5.46616c-3.0189,0 -5.46619,-2.4473 -5.46619,-5.46616c0,-3.01889 2.44729,-5.4662 5.46619,-5.4662c3.01886,0 5.46616,2.4473 5.46617,5.46619z" fill="#fcb1e3"/><path d="M113.06937,247.79406c-2.9381,-0.69377 -4.75744,-3.63798 -4.06367,-6.57609c0.69377,-2.93807 3.63798,-4.75744 6.57606,-4.06368c2.9381,0.69377 4.75747,3.63798 4.06367,6.57609c-0.69377,2.93808 -3.63798,4.75745 -6.57606,4.06368z" fill="#ffd983"/><path d="M125.75436,248.43582c0,3.0189 -2.44809,5.46699 -5.46699,5.46699c-3.01886,0 -5.46616,-2.44813 -5.46616,-5.46699c0,-3.01886 2.44731,-5.46616 5.46616,-5.46616c3.0189,0 5.46699,2.44813 5.46699,5.46616z" fill="#a6d388"/><path d="M128.90197,258.04454c-0.25421,0 -0.50842,-0.09714 -0.7027,-0.29063l-6.08795,-6.08792c-0.38857,-0.38777 -0.38857,-1.01763 0,-1.4054c0.3886,-0.38777 1.01683,-0.38777 1.4054,0l6.08795,6.08792c0.38777,0.38777 0.38777,1.01763 0,1.4054c-0.19432,0.19269 -0.44852,0.29063 -0.70273,0.29063z" fill="#d99e82"/></g></g></svg>